<?xml version="1.0" encoding="UTF-8"?>
<!DOCTYPE svg PUBLIC "-//W3C//DTD SVG 1.1//EN" "http://www.w3.org/Graphics/SVG/1.1/DTD/svg11.dtd">
<!-- Creator: CorelDRAW 2018 (64-Bit) -->
<?xml-stylesheet href="akrom-logo.css" type="text/css"?>
<svg xmlns="http://www.w3.org/2000/svg" xml:space="preserve" width="200px" height="50px" version="1.1" style="shape-rendering:geometricPrecision; text-rendering:geometricPrecision; image-rendering:optimizeQuality; fill-rule:evenodd; clip-rule:evenodd"
viewBox="0 0 50.89 12.71"
 xmlns:xlink="http://www.w3.org/1999/xlink">
 <g id="Layer_x0020_1">
  <metadata id="CorelCorpID_0Corel-Layer"/>
  <path class="fil0" d="M6.13 5.21l1.56 0c0.1,-0.37 0.11,-0.91 -0.36,-1.01 -0.64,-0.14 -1.06,0.47 -1.2,1.01zm28.96 6.37l-0.22 0.66 3.9 0 2.25 -7.03c-0.01,0.58 -0.02,1.15 -0.04,1.73 -0.03,1.48 -0.09,2.95 -0.07,4.43 0.01,0.64 0.42,1.07 1.07,1.07 0.71,0 1.22,-0.47 1.57,-1.05 0.87,-1.44 1.56,-3 2.19,-4.56 0.29,-0.7 0.56,-1.4 0.84,-2.11l-1.17 7.52 3.62 0c0.52,-3.23 1.08,-6.46 1.57,-9.7 0.18,-1.18 -0.5,-2.03 -1.66,-2.2 -1.52,-0.24 -2.82,0.57 -3.51,1.91l-1.87 3.66c0,-1.33 0,-2.65 0,-3.98 -0.02,-1.15 -0.75,-1.62 -1.82,-1.63 -1.25,0 -2.31,0.74 -3.07,1.67 1.65,2.3 0.68,5.39 -0.94,7.37 -0.73,0.89 -1.64,1.66 -2.64,2.24zm2.44 -2.41c1.64,-2 2.49,-4.94 0.83,-7.17 -0.92,-1.19 -2.35,-1.7 -3.82,-1.7 -1.7,0 -3.38,0.67 -4.74,1.66 0.67,1.25 0.44,2.9 -0.21,4.12 -0.67,1.25 -1.85,2.03 -3.19,2.43 0.25,2.51 2.26,3.94 4.69,3.94 2.47,0 4.9,-1.39 6.44,-3.28zm0.98 -7.4c0.83,-0.98 1.9,-1.72 3.23,-1.73 1.21,0.01 2.06,0.59 2.08,1.88 0,0.98 -0.01,1.95 0,2.92l1.38 -2.7c0.74,-1.44 2.15,-2.31 3.77,-2.06 1.3,0.2 2.09,1.17 1.89,2.5 -0.51,3.31 -1.08,6.61 -1.61,9.91l-4.14 0 0.86 -5.53c-0.63,1.56 -1.33,3.12 -2.2,4.56 -0.4,0.66 -0.99,1.18 -1.79,1.18 -0.79,0 -1.32,-0.54 -1.33,-1.32 -0.02,-1.47 0.04,-2.94 0.08,-4.41l-1.77 5.52 -4.44 0 0.24 -0.73c-1.15,0.6 -2.41,0.95 -3.67,0.95 -2.62,0 -4.62,-1.52 -4.94,-4.13 -0.81,0.21 -1.69,0.31 -2.58,0.3l-0.99 3.61c-2.75,0 -5.49,0 -8.24,0l0.94 -3.99c0.06,-0.29 0.19,-0.98 -0.28,-0.98 -0.45,0 -0.55,0.49 -0.65,0.84 -0.38,1.37 -0.69,2.76 -1.04,4.13 -2.51,0 -5.02,0 -7.53,0l0.9 -3.66 -1.46 0 -0.92 3.66 -4.3 0c0.53,-2.38 1.11,-4.75 1.69,-7.13 0.75,-3.1 3.11,-5.32 6.39,-5.32 1.37,0 2.73,0.41 3.46,1.65 0.11,-0.46 0.23,-0.92 0.34,-1.39l4.57 0 -0.85 3.22 2.16 -3.22 4.75 0 -3.56 4.99c0.42,0.22 0.71,0.49 0.88,0.82 0.46,-1.61 1.06,-3.08 2.03,-4.17 1.88,-2.12 6.09,-2.94 7.81,-0.2 1.43,-1.02 3.09,-1.7 4.87,-1.7 1.52,0 3,0.53 3.97,1.73zm-9.15 4.19c0.66,-1.23 0.82,-2.83 0.11,-4.07 -1.61,-2.59 -5.64,-1.78 -7.42,0.22 -1,1.14 -1.61,2.7 -2.06,4.42 0.06,0.31 0.04,0.66 -0.04,1.04 -0.37,1.56 -0.74,3.11 -1.11,4.67l3.54 0 2.04 -7.47c0.14,-0.49 0.6,-0.94 1.12,-0.97 0.63,-0.03 0.94,0.59 0.59,1.08 -0.22,0.32 -0.73,0.6 -1.64,0.61l-0.85 3.13c2.24,0.01 4.59,-0.63 5.72,-2.66zm4.53 1.87c0.5,-0.38 0.89,-0.91 1.05,-1.49 0.24,-0.85 -0.08,-1.71 -0.99,-1.96 -1.48,-0.42 -3.33,1.04 -3.33,2.57 0,1.86 2.16,1.73 3.27,0.88zm0.16 0.2c-1.29,0.99 -3.69,1.01 -3.69,-1.08 0,-1.69 2.01,-3.28 3.66,-2.82 1.04,0.29 1.44,1.29 1.17,2.28 -0.18,0.63 -0.6,1.21 -1.14,1.62zm-9.49 -2.79c0.76,-0.03 1.18,-0.25 1.36,-0.5 0.23,-0.32 0.05,-0.7 -0.36,-0.68 -0.41,0.02 -0.78,0.39 -0.89,0.77l-0.11 0.41zm-9.03 3.32l-0.86 3.68 3.9 0c0.38,-1.58 0.76,-3.15 1.12,-4.73 0.26,-1.11 -0.14,-1.66 -1.13,-2.12l3.45 -4.83 -4.11 0 -2.94 4.37 1.15 -4.37 -4.02 0 -0.37 1.49c0.65,1.49 0.28,3.07 -0.09,4.56l-1.39 5.63 2.87 0c0.33,-1.32 0.63,-2.64 0.99,-3.95 0.13,-0.48 0.29,-1.03 0.9,-1.03 0.71,0 0.64,0.81 0.53,1.3zm-4.06 -6.43c-0.61,-1.38 -1.97,-1.83 -3.39,-1.83 -3.16,0 -5.41,2.13 -6.14,5.12 -0.56,2.27 -1.11,4.55 -1.62,6.82l3.78 0 1.82 -7.22c0.15,-0.63 0.78,-1.22 1.46,-1.08 0.74,0.16 0.67,0.97 0.5,1.53l-1.81 0 -0.78 3.1 1.72 0 -0.9 3.67 3.87 0 1.4 -5.68c0.35,-1.43 0.72,-3.02 0.09,-4.43z"/>
 </g>
</svg>
