<?xml version="1.0" encoding="UTF-8"?>
<!DOCTYPE svg PUBLIC "-//W3C//DTD SVG 1.1//EN" "http://www.w3.org/Graphics/SVG/1.1/DTD/svg11.dtd">
<!-- Creator: CorelDRAW 2018 (64-Bit) -->
<svg xmlns="http://www.w3.org/2000/svg" xml:space="preserve" width="1663px" height="673px" version="1.1" style="shape-rendering:geometricPrecision; text-rendering:geometricPrecision; image-rendering:optimizeQuality; fill-rule:evenodd; clip-rule:evenodd"
viewBox="0 0 166300 67300"
 xmlns:xlink="http://www.w3.org/1999/xlink">
 <defs>
  <style type="text/css">
   <![CDATA[
    .fil0 {fill:white}
    .fil1 {fill:#C2BBAE;fill-rule:nonzero}
    .fil2 {fill:url(#id0)}
   ]]>
  </style>
  <linearGradient id="id0" gradientUnits="userSpaceOnUse" x1="68985" y1="11050" x2="67581" y2="43631">
   <stop offset="0" style="stop-opacity:1; stop-color:#CBF2E3"/>
   <stop offset="1" style="stop-opacity:1; stop-color:white"/>
  </linearGradient>
 </defs>
 <g id="Layer_x0020_1">
  <metadata id="CorelCorpID_0Corel-Layer"/>
  <g id="_2394651445552">
   <g>
    <path class="fil0" d="M141750 3l-633 94 0 4665 1738 1303 66 387 1114 708 0 6355 1832 0 0 -6289 246 0 0 -3050 -794 -717 0 821 -1860 -1964 0 -746 -510 -623 -217 -76 -330 -403 -652 -465zm784 4060l-47 -359 491 265 0 -595 557 462 0 605 472 453 -576 -246 0 699 -472 -321 0 -500 -425 -463z"/>
    <path id="1" class="fil1" d="M141112 60l633 -94 11 74 -633 94 -43 -37 32 -37zm-32 37l0 -32 32 -5 -32 37zm0 4665l0 -4665 75 0 0 4665 -60 30 -15 -30zm15 30l-15 -11 0 -19 15 30zm1737 1303l-1737 -1303 45 -60 1737 1303 15 24 -60 36zm45 -60l12 9 3 15 -15 -24zm7 423l-66 -387 74 -12 66 387 -57 38 -17 -26zm17 26l-14 -9 -3 -17 17 26zm1114 708l-1114 -708 40 -64 1114 709 18 31 -58 32zm40 -63l18 11 0 20 -18 -31zm-57 6386l0 -6355 75 0 0 6355 -38 38 -37 -38zm37 38l-37 0 0 -38 37 38zm1832 0l-1832 0 0 -75 1832 0 38 37 -38 38zm38 -38l0 38 -38 0 38 -38zm0 -6289l0 6289 -76 0 0 -6289 38 -37 38 37zm-76 0l0 -37 38 0 -38 37zm284 38l-246 0 0 -75 246 0 37 37 -37 38zm37 -38l0 38 -37 0 37 -38zm0 -3050l0 3050 -75 0 0 -3050 63 -27 12 27zm-12 -27l12 11 0 16 -12 -27zm-793 -718l793 718 -51 55 -793 -718 -12 -27 63 -28zm-63 28l0 -85 63 57 -63 28zm0 821l0 -821 75 0 0 821 -65 26 -10 -26zm75 0l0 94 -65 -68 65 -26zm-1870 -1990l1860 1964 -55 52 -1860 -1964 -10 -26 65 -26zm-55 52l-10 -11 0 -15 10 26zm65 -772l0 746 -75 0 0 -746 66 -24 9 24zm-9 -24l9 11 0 13 -9 -24zm-510 -623l510 623 -58 48 -510 -623 42 -60 16 12zm-16 -12l10 4 6 8 -16 -12zm-218 -75l218 75 -25 71 -217 -75 -17 -12 41 -59zm-24 71l-10 -4 -7 -8 17 12zm-289 -463l330 404 -58 47 -330 -403 50 -55 8 7zm-8 -7l4 3 4 4 -8 -7zm-651 -465l651 465 -43 61 -652 -465 17 -67 27 6zm-27 -6l15 -3 12 9 -27 -6zm779 3733l47 359 -74 10 -48 -359 55 -38 20 28zm-75 10l-9 -73 64 35 -55 38zm511 293l-491 -265 35 -66 491 265 20 33 -55 33zm55 -33l0 63 -55 -30 55 -33zm0 -595l0 595 -75 0 0 -595 62 -29 13 29zm-75 0l0 -80 62 51 -62 29zm571 491l-557 -462 48 -58 557 463 13 28 -61 29zm48 -57l13 11 0 17 -13 -28zm-62 633l0 -605 75 0 0 605 -63 27 -12 -27zm12 27l-12 -11 0 -16 12 27zm472 453l-472 -453 52 -54 472 453 -41 62 -11 -8zm52 -54l148 142 -189 -80 41 -62zm-587 -253l576 246 -30 69 -576 -246 -23 -35 53 -34zm-53 34l0 -56 53 22 -53 34zm0 699l0 -699 75 0 0 699 -58 31 -17 -31zm75 0l0 71 -58 -40 58 -31zm-488 -352l472 321 -42 62 -472 -321 -17 -31 59 -31zm-42 62l-17 -11 0 -20 17 31zm58 -531l0 500 -75 0 0 -500 65 -26 10 26zm-10 -26l10 11 0 15 -10 -26zm-425 -462l425 462 -55 51 -425 -463 -9 -20 64 -30zm-55 50l-8 -8 -1 -12 9 20z"/>
   </g>
   <g>
    <polygon class="fil0" points="141750,3 141117,97 141117,4762 142402,5725 142402,468 "/>
    <path id="1" class="fil1" d="M141112 60l633 -94 11 74 -633 94 -43 -37 32 -37zm-32 37l0 -32 32 -5 -32 37zm0 4665l0 -4665 75 0 0 4665 -60 30 -15 -30zm15 30l-15 -11 0 -19 15 30zm1284 963l-1284 -963 45 -60 1284 963 15 30 -60 30zm60 -30l0 75 -60 -45 60 -30zm0 -5257l0 5257 -75 0 0 -5257 59 -31 16 31zm-16 -31l16 12 0 19 -16 -31zm-651 -465l651 465 -43 61 -652 -465 17 -67 27 6zm-27 -6l15 -3 12 9 -27 -6z"/>
   </g>
   <g>
    <polygon class="fil0" points="142402,5725 142855,6065 142855,4932 142959,5026 142959,4526 142534,4063 142487,3704 142978,3969 142978,3374 143535,3836 143535,4441 144007,4894 144120,4932 144120,4384 143941,4280 143941,3676 144747,3676 143459,2316 143459,1570 142949,947 142732,871 142402,468 142402,3251 141873,3017 141892,3629 142402,3846 "/>
    <path id="1" class="fil1" d="M142832 6095l-453 -340 45 -60 453 340 15 30 -60 30zm60 -30l0 75 -60 -45 60 -30zm0 -1133l0 1133 -75 0 0 -1133 63 -28 12 28zm-75 0l0 -85 63 57 -63 28zm116 122l-103 -94 50 -56 104 94 12 28 -63 28zm63 -28l0 85 -63 -57 63 -28zm0 -500l0 500 -75 0 0 -500 65 -26 10 26zm-10 -26l10 11 0 15 -10 -26zm-425 -462l425 462 -55 51 -425 -463 -9 -20 64 -30zm-55 50l-8 -8 -1 -12 9 20zm18 -389l47 359 -74 10 -48 -359 55 -38 20 28zm-75 10l-9 -73 64 35 -55 38zm511 293l-491 -265 35 -66 491 265 20 33 -55 33zm55 -33l0 63 -55 -30 55 -33zm0 -595l0 595 -75 0 0 -595 62 -29 13 29zm-75 0l0 -80 62 51 -62 29zm571 491l-557 -462 48 -58 557 463 13 28 -61 29zm48 -57l13 11 0 17 -13 -28zm-62 633l0 -605 75 0 0 605 -63 27 -12 -27zm12 27l-12 -11 0 -16 12 27zm472 453l-472 -453 52 -54 472 453 -38 63 -14 -9zm14 9l-8 -3 -6 -6 14 9zm113 37l-113 -37 24 -72 113 38 26 36 -50 35zm50 -35l0 52 -50 -17 50 -35zm0 -548l0 548 -75 0 0 -548 56 -32 19 32zm-19 -32l19 11 0 21 -19 -32zm-179 -104l179 104 -38 65 -179 -104 -19 -33 57 -32zm-38 65l-19 -11 0 -22 19 33zm56 -637l0 604 -75 0 0 -604 38 -38 37 38zm-75 0l0 -38 38 0 -38 38zm844 38l-806 0 0 -76 806 0 27 12 -27 64zm27 -64l60 64 -87 0 27 -64zm-1287 -1360l1287 1360 -54 52 -1288 -1360 -10 -26 65 -26zm-55 52l-10 -11 0 -15 10 26zm65 -772l0 746 -75 0 0 -746 66 -24 9 24zm-9 -24l9 11 0 13 -9 -24zm-510 -623l510 623 -58 48 -510 -623 42 -60 16 12zm-16 -12l10 4 6 8 -16 -12zm-218 -75l218 75 -25 71 -217 -75 -17 -12 41 -59zm-24 71l-10 -4 -7 -8 17 12zm-289 -463l330 404 -58 47 -330 -403 -9 -24 67 -24zm-67 24l0 -105 67 81 -67 24zm0 2783l0 -2783 75 0 0 2783 -53 34 -22 -34zm75 0l0 58 -53 -24 53 -34zm-551 -268l529 234 -31 68 -529 -233 -22 -33 53 -36zm-53 36l-2 -60 55 24 -53 36zm19 611l-19 -611 75 -3 19 612 -52 35 -23 -33zm23 33l-22 -9 -1 -24 23 33zm510 217l-510 -217 29 -69 510 217 23 35 -52 34zm29 -69l23 10 0 25 -23 -35zm-52 1914l0 -1879 75 0 0 1879 -60 30 -15 -30zm15 30l-15 -11 0 -19 15 30z"/>
   </g>
   <g>
    <path class="fil0" d="M144658 3676l0 873 532 409 -13 539 -556 -315 0 888 270 226 -856 864 -1114 -708 -66 -387 1187 833 31 -1161 -642 -390 0 -699 689 284c0,-183 0,-365 0,-548l-179 -104 0 -604 717 0z"/>
    <path id="1" class="fil1" d="M144621 4549l0 -873 75 0 0 873 -60 30 -15 -30zm15 30l-15 -11 0 -19 15 30zm531 408l-531 -408 45 -59 532 408 14 31 -60 28zm46 -59l15 11 -1 20 -14 -31zm-73 568l12 -539 75 2 -13 539 -55 32 -19 -34zm74 2l-1 63 -54 -31 55 -32zm-575 -349l556 315 -36 66 -557 -315 -19 -33 56 -33zm-56 33l0 -64 56 31 -56 33zm0 888l0 -888 75 0 0 888 -61 29 -14 -29zm14 29l-14 -12 0 -17 14 29zm270 226l-270 -226 48 -58 270 226 3 55 -51 3zm48 -58l32 26 -29 29 -3 -55zm-907 867l857 -864 53 52 -856 865 -47 5 -7 -58zm54 53l-21 21 -26 -16 47 -5zm-1121 -767l1114 709 -40 63 -1114 -708 -17 -26 57 -38zm-40 64l-14 -9 -3 -17 17 26zm-9 -425l66 387 -74 12 -66 -387 58 -37 16 25zm-74 12l-15 -88 73 51 -58 37zm1203 858l-1188 -833 43 -62 1188 834 16 31 -59 30zm59 -30l-2 70 -57 -40 59 -30zm30 -1161l-30 1161 -75 -2 30 -1161 57 -31 18 33zm-18 -33l19 11 -1 22 -18 -33zm-642 -390l642 390 -39 64 -642 -390 -18 -32 57 -32zm-39 64l-18 -11 0 -21 18 32zm57 -731l0 699 -75 0 0 -699 52 -34 23 34zm-75 0l0 -56 52 22 -52 34zm713 319l-690 -284 29 -69 689 283 24 35 -52 35zm52 -35l0 56 -52 -21 52 -35zm-57 -515l38 -65 19 32 0 17 0 17 0 18 0 17 0 17 0 17 0 17 0 17 0 17 0 17 0 17 0 18 0 17 0 17 0 17 0 17 0 17 0 17 0 17 0 17 0 18 0 17 0 17 0 17 0 17 0 17 0 17 0 17 0 17 0 18 0 17 0 17 -75 0 0 -17 0 -17 0 -18 0 -17 0 -17 0 -17 0 -17 0 -17 0 -17 0 -17 0 -17 0 -18 0 -17 0 -17 0 -17 0 -17 0 -17 0 -17 0 -17 0 -17 0 -18 0 -17 0 -17 0 -17 0 -17 0 -17 0 -17 0 -17 0 -17 0 -18 0 -17 0 -17 18 33zm38 -65l19 11 0 21 -19 -32zm-179 -104l179 104 -38 65 -179 -104 -19 -33 57 -32zm-38 65l-19 -11 0 -22 19 33zm56 -637l0 604 -75 0 0 -604 38 -38 37 38zm-75 0l0 -38 38 0 -38 38zm755 38l-717 0 0 -76 717 0 38 38 -38 38zm0 -76l38 0 0 38 -38 -38z"/>
   </g>
   <g>
    <polygon class="fil0" points="145506,6653 145515,6101 145772,6318 145586,6653 146113,6653 145931,7061 146113,7059 146113,7226 145867,7226 145671,7588 145506,7205 "/>
    <path id="1" class="fil1" d="M145553 6101l-10 553 -75 -2 10 -552 62 -28 13 29zm-75 -1l1 -79 61 51 -62 28zm270 247l-257 -218 49 -57 256 217 9 47 -57 11zm48 -58l24 20 -15 27 -9 -47zm-243 346l186 -335 66 36 -186 335 -33 19 -33 -55zm33 55l-64 0 31 -55 33 55zm527 0l-527 0 0 -75 527 0 34 53 -34 22zm0 -75l57 0 -23 53 -34 -53zm-216 431l181 -408 69 30 -182 408 -34 23 -34 -53zm34 53l-58 0 24 -53 34 53zm182 -3l-182 3 -1 -75 182 -3 38 38 -37 37zm-1 -75l38 0 0 38 -38 -38zm-37 205l0 -167 75 0 0 167 -37 38 -38 -38zm75 0l0 38 -37 0 37 -38zm-283 -37l246 0 0 75 -246 0 -33 -55 33 -20zm-33 20l11 -20 22 0 -33 20zm-196 361l196 -361 66 35 -196 361 -67 -2 1 -33zm66 35l-37 68 -30 -70 67 2zm-164 -415l165 383 -68 30 -166 -383 -3 -15 72 -15zm-69 30l-3 -7 0 -8 3 15zm72 -567l0 552 -75 0 0 -552 0 -1 75 1zm-75 0l0 -1 0 0 0 1z"/>
   </g>
   <g>
    <polygon class="fil0" points="145867,8414 145496,8414 145496,13515 145867,13515 "/>
    <path id="1" class="fil1" d="M145496 8376l371 0 0 76 -371 0 -37 -38 37 -38zm-37 38l0 -38 37 0 -37 38zm0 5101l0 -5101 75 0 0 5101 -38 38 -37 -38zm37 38l-37 0 0 -38 37 38zm371 0l-371 0 0 -75 371 0 38 37 -38 38zm38 -38l0 38 -38 0 38 -38zm0 -5101l0 5101 -76 0 0 -5101 38 -38 38 38zm-38 -38l38 0 0 38 -38 -38z"/>
   </g>
   <g>
    <polygon class="fil0" points="145591,13515 145496,13515 145496,8140 145867,8414 145591,8603 "/>
    <path id="1" class="fil1" d="M145496 13478l95 0 0 75 -95 0 -37 -38 37 -37zm0 75l-37 0 0 -38 37 38zm38 -5413l0 5375 -75 0 0 -5375 60 -30 15 30zm-75 0l0 -74 60 44 -60 30zm386 304l-371 -274 45 -60 370 274 -1 61 -43 -1zm44 -60l43 31 -44 30 1 -61zm-319 188l276 -189 42 62 -276 189 -59 -31 17 -31zm-17 31l0 -20 17 -11 -17 31zm0 4912l0 -4912 75 0 0 4912 -37 38 -38 -38zm75 0l0 38 -37 0 37 -38z"/>
   </g>
   <g>
    <polygon class="fil0" points="146120,6641 145586,6653 145779,6306 145754,4689 145319,4280 145319,3459 146113,4176 "/>
    <path id="1" class="fil1" d="M145585 6615l534 -11 1 75 -533 11 -34 -55 32 -20zm2 75l-65 2 31 -57 34 55zm225 -366l-193 347 -66 -36 193 -347 71 18 -5 18zm5 -18l0 9 -5 9 5 -18zm-26 -1618l26 1618 -76 1 -25 -1618 64 -28 11 27zm-11 -27l11 11 0 16 -11 -27zm-435 -408l435 408 -52 55 -434 -409 -12 -27 63 -27zm-51 54l-12 -11 0 -16 12 27zm63 -848l0 821 -75 0 0 -821 63 -28 12 28zm-75 0l0 -85 63 57 -63 28zm805 745l-793 -718 51 -55 793 718 12 27 -63 28zm51 -55l12 11 0 16 -12 -27zm-56 2492l-7 -2465 75 0 7 2465 -37 38 -38 -38zm75 0l0 37 -37 1 37 -38z"/>
   </g>
   <g>
    <polygon class="fil0" points="142959,5026 142855,4932 142855,6065 144042,6898 144073,5737 143431,5347 "/>
    <path id="1" class="fil1" d="M142880 4904l104 94 -51 56 -103 -94 -13 -28 63 -28zm-63 28l0 -85 63 57 -63 28zm0 1133l0 -1133 75 0 0 1133 -59 31 -16 -31zm16 31l-16 -12 0 -19 16 31zm1188 833l-1188 -833 43 -62 1188 834 16 31 -59 30zm59 -30l-2 70 -57 -40 59 -30zm30 -1161l-30 1161 -75 -2 30 -1161 57 -31 18 33zm-18 -33l19 11 -1 22 -18 -33zm-642 -390l642 390 -39 64 -642 -390 -1 -1 40 -63zm-39 64l-1 -1 -1 0 2 1zm-431 -384l472 321 -42 62 -472 -321 -5 -3 47 -59zm-42 62l-2 -1 -3 -2 5 3z"/>
   </g>
  </g>
  <path class="fil2" d="M0 67297c0,-23467 0,-38050 0,-61518 53670,0 57014,26460 85980,25067 28851,-1387 52326,-22454 80320,-22454l0 58905 -166300 0z"/>
 </g>
</svg>
