<?xml version="1.0" encoding="UTF-8"?>
<!DOCTYPE svg PUBLIC "-//W3C//DTD SVG 1.1//EN" "http://www.w3.org/Graphics/SVG/1.1/DTD/svg11.dtd">
<!-- Creator: CorelDRAW 2018 (64-Bit) -->
<?xml-stylesheet href="bike.css" type="text/css"?>
<svg xmlns="http://www.w3.org/2000/svg" xml:space="preserve" width="389px" height="270px" version="1.1" style="shape-rendering:geometricPrecision; text-rendering:geometricPrecision; image-rendering:optimizeQuality; fill-rule:evenodd; clip-rule:evenodd"
viewBox="0 0 71.05 49.3"
 xmlns:xlink="http://www.w3.org/1999/xlink">
 <g id="Layer_x0020_1">
  <metadata id="CorelCorpID_0Corel-Layer"/>
  <path class="fil0" d="M56.02 3.46c-0.34,-0.18 -0.71,-0.57 -1.28,-0.4 -0.54,0.16 -0.43,0.82 -0.36,1.34 -0.45,-0.01 -0.88,-0.07 -1,0.41 -0.12,0.52 0.23,0.72 0.36,1.01 -0.6,0.48 -0.81,1.17 0.22,1.39 -0.14,0.4 -0.37,0.72 -0.01,1.12 0.32,0.35 0.79,0.15 1.25,0.07 0,0.66 0.1,0.71 0.57,0.96 -0.49,0.27 -4.11,0.8 -5.11,0.99 -0.28,0.05 -0.59,0.11 -0.87,0.16 -0.49,0.09 -0.46,0.17 -0.78,0.27l-0.19 -0.97c3.2,-0.9 5.06,-5.53 0.63,-5.53l-5.32 0c-1.28,0 -1.46,1.51 0.15,1.51l4.8 0c0.75,0 1.97,-0.02 1.61,0.97 -0.2,0.55 -0.91,1.12 -1.38,1.43 -2.33,1.55 -2.31,-0.4 -1.02,5.5 0.21,0.97 -0.02,0.84 -0.76,1.8 -4.05,5.15 -5.28,8.06 -12.2,10.11 -0.64,0.19 -3.96,1.11 -4.45,1.06l-3.63 -16.71 3.43 -0.01c1,0 1.81,-0.74 1.06,-1.41 -0.54,-0.48 -1.92,-0.31 -2.76,-0.31 -1.45,0 -3.07,0.08 -4.51,0.01 -0.47,-0.03 -1.3,-1.01 -1.64,-1.36 -0.24,-0.24 -0.46,-0.64 -0.95,-0.47 -0.28,0.1 -0.64,0.47 -0.74,0.74 -0.18,0.49 0.22,0.7 0.47,0.95 0.48,0.47 1.03,1.07 1.54,1.49 0.76,0.63 1.66,0.25 2.73,0.39 0.32,0.69 0.99,4.5 1.24,5.68 0.24,1.12 0.18,0.89 -0.38,1.66 -0.55,0.78 -3.33,4.83 -3.89,5.44 -0.25,-0.09 -0.57,-0.31 -0.78,-0.43 -4.73,-2.6 -10.18,-2.38 -14.77,0.22 -3.49,1.97 -7.29,6.62 -7.3,12.53 0.33,0.01 0.71,0.06 1.01,-0.06 0.28,-5.01 2.62,-9.17 6.85,-11.62 3.22,-1.85 7.48,-2.49 11.27,-1.23 0.76,0.25 2.72,1.05 3.1,1.51 -0.22,0.15 -1.04,-0.41 -1.48,-0.62 -0.59,-0.27 -1.06,-0.46 -1.7,-0.66 -6.87,-2.18 -13.33,1.34 -16.22,6.54 -2.74,4.96 -1.95,10.83 1.08,14.86 2.42,3.2 7.3,6.42 13.52,5.26 4.47,-0.82 7.72,-3.47 9.71,-7.2 0.27,-0.49 0.5,-1.22 0.76,-1.67 0.52,0.06 2.69,0.5 3.02,0.7l-0.59 2.27c-0.71,0.09 -1.57,-0.16 -1.87,0.39 -0.41,0.74 0.26,1.11 0.97,1.11l2.43 0c0.58,0 1,-0.25 0.9,-0.88 -0.09,-0.61 -0.64,-0.59 -1.29,-0.6l0.51 -2.1c1.84,0.02 3.34,-0.2 4.37,-1.83 0.39,-0.64 0.66,-1.53 0.57,-2.47 -0.11,-1.05 -0.48,-1.5 -0.91,-2.16 0.27,-0.5 4.43,-4.8 5.07,-5.55 0.55,-0.65 1.15,-1.21 1.7,-1.86 0.71,-0.84 6.57,-7.21 6.82,-7.34l0.52 2.39c-1.87,0.66 -4.38,3.26 -5.46,4.91 -0.67,1.02 -1.27,2.15 -1.7,3.48 -0.28,0.87 -0.93,3.49 -0.72,4.45l0.96 0c0.27,-1.76 0.06,-2.07 0.7,-4.03 1.02,-3.18 3.42,-6.27 6.41,-7.79l0.1 0.35c-5.3,2.94 -8.12,9.63 -6.34,15.7 1.57,5.38 6.58,9.97 13.36,9.96 7.32,-0.01 13.64,-6.17 13.62,-13.49l0 -0.52c-0.01,-7.28 -5.78,-12.63 -12.11,-13.41 -1.89,-0.24 -3.89,-0.05 -5.71,0.51 -0.52,0.16 -1.13,0.46 -1.55,0.55 -0.11,-0.52 0.23,-0.44 0.91,-0.68 1.37,-0.49 2.84,-0.7 4.35,-0.75l0.05 -1c-1.39,-0.12 -3.01,0.24 -4.32,0.66 -0.4,0.12 -0.91,0.35 -1.31,0.42l-2.11 -9.74c0.64,0.1 0.84,-0.08 1.38,-0.1 0.49,0.64 2.56,6.14 3.26,7.29 0.36,0.03 10.98,-1.96 11.43,-2.14 0.18,-1.53 -0.07,-7.38 0.06,-7.82 0.16,-0.26 0.13,-0.08 0.45,-0.24 0.57,-0.27 0.34,-1.19 -0.28,-1.23 -0.34,-0.02 -1.97,0.34 -2.44,0.43 -1.5,0.29 -3.4,0.74 -4.88,0.9 0.17,-0.39 0.18,-0.42 0.15,-0.91 0.48,0.12 0.89,0.35 1.13,-0.18 0.24,-0.52 -0.07,-1.03 -0.21,-1.35 0.79,-0.77 0.43,-0.92 0.03,-1.62 0.5,-1.56 -0.53,-1.63 -1.66,-1.14 -0.17,-0.41 -0.25,-0.81 -0.69,-0.87 -0.51,-0.06 -0.73,0.37 -0.96,0.61zm-33.62 22.29c0.13,0.3 0.5,0.48 0.75,0.73 0.79,0.78 1.44,1.46 2.06,2.45 1.31,2.1 1.07,2.4 1.73,4.31l0.47 0.01c0.17,-1.36 -1.82,-5.09 -3.08,-6.32 -0.32,-0.31 -1.28,-1.37 -1.7,-1.48l-0.23 0.3zm4.44 14.19l-0.5 -0.1c-3.84,10.21 -18.34,10.83 -22.83,0.43 -2.05,-4.75 -0.63,-10.86 3.28,-14.03 1.78,-1.43 3.69,-2.57 6.68,-2.93 2.01,-0.24 4.31,0.09 6.13,0.89 0.56,0.24 1.14,0.61 1.62,0.8l0.3 -0.34c-0.52,-0.52 -2.59,-1.27 -3.47,-1.49 -4.26,-1.09 -8.38,0.1 -11.46,2.72 -3.37,2.86 -5.91,8.48 -3.44,14.52 3.09,7.55 12.76,10.41 19.47,5.26 1.01,-0.77 1.71,-1.47 2.47,-2.48 0.42,-0.56 1.62,-2.4 1.75,-3.25zm-23.85 -4.54l9.8 0.04 0.14 -1.05 -6.22 -5.66c-0.33,-0.29 -0.58,-0.62 -0.93,-0.82 -1.4,1.18 -3.03,5.38 -2.79,7.49zm3.18 -7.95l7.07 6.47c0.27,-0.23 0.45,-0.34 0.71,-0.57l0.01 -9.64c-1.33,-0.09 -3.48,0.72 -4.48,1.23 -1.44,0.74 -2.39,1.53 -3.31,2.51zm8.33 5.7c0.94,0 0.84,0.19 1.25,-0.39l4.49 -6.3c0.24,-0.34 0.56,-0.74 0.74,-1.07 -1.26,-1.04 -4.57,-1.86 -6.48,-1.71l0 9.47zm3.28 -0.85c0.49,-0.29 4.7,-4.12 5.71,-4.9 -0.42,-0.32 -0.85,-0.98 -1.38,-1.2 -0.27,0.25 -4.15,5.82 -4.33,6.1zm-0.15 0.95l8.82 0c0.04,-0.7 -0.7,-2.46 -0.99,-3.02 -0.23,-0.46 -0.47,-0.87 -0.73,-1.26 -0.16,-0.24 -0.27,-0.39 -0.43,-0.61l-0.33 -0.4c-0.15,-0.15 -0.03,-0.05 -0.19,-0.15 -0.24,0.35 -6.02,5.14 -6.15,5.44zm6.03 10.17c0.54,-0.48 2.03,-2.64 2.22,-3.64 -0.28,-0.16 -7.46,-1.7 -8.16,-1.8 0.15,0.31 5.68,5.32 5.94,5.44zm-9.16 3.95c2.28,0.23 5.28,-0.82 7.07,-2.08 0.43,-0.31 1.46,-1.06 1.68,-1.5 -0.23,-0.11 -1.74,-1.52 -1.99,-1.76 -0.68,-0.65 -1.3,-1.14 -1.96,-1.81l-0.96 -0.88c-1.81,-1.57 -1.39,-1.8 -3.82,-1.91l-0.02 9.94zm-8.54 -4.04c0.41,0.75 2.27,2.11 3.34,2.68 1.07,0.58 3.21,1.35 4.65,1.33l0.01 -10.07c-0.19,-0.2 -0.34,-0.31 -0.57,-0.38l-7.43 6.44zm-0.4 -0.45c0.26,-0.09 6.04,-5.15 6.61,-5.66 0.28,-0.25 0.72,-0.58 0.9,-0.84l-0.21 -0.41 -9.87 -0.03c-0.08,2.14 1.26,5.63 2.57,6.94zm23.78 -6.73l1.44 0.01c0.21,-0.4 0.29,-0.46 0.56,-0.74l-0.26 -1.32c-0.67,0.19 -1.6,1.24 -1.74,2.05zm-5.36 -12.62c0.18,0.24 1.25,1.05 1.95,1.87 3.58,4.2 3.26,6.88 3.72,7.82l1.23 0.03 -3.18 -14.93c-0.34,0.35 -3.44,4.8 -3.72,5.21zm7.26 4.58c0,0.38 0.93,4.7 1.1,5.13l0.9 0.01 0.53 -1.91c-0.65,-0.06 -1.16,-0.03 -1.24,-0.66 -0.08,-0.68 0.43,-0.84 1.03,-0.84l2.37 0c0.72,0 1.31,0.41 0.92,1.11 -0.29,0.53 -1.28,0.36 -1.94,0.37 -0.11,0.23 -0.55,1.85 -0.56,2.18l0.54 0.21 7.79 -8.37c1.1,-1.31 3.09,-3.33 4.33,-4.68l1.95 -2.12c0.23,-0.25 0.32,-0.24 0.22,-0.72 -0.08,-0.4 -0.24,-1.36 -0.4,-1.65 -0.25,0.23 -0.53,0.66 -0.78,0.97 -1.85,2.42 -3.6,5.05 -6.09,6.83 -2.3,1.65 -4.96,2.5 -7.76,3.32 -0.65,0.19 -2.44,0.58 -2.91,0.82zm1.3 10.95c-0.11,0.29 -0.41,1.23 -0.37,1.57 3.75,0.35 4.84,-3.91 3.31,-5.45 -0.19,0.13 -0.25,0.23 -0.41,0.42 -0.74,0.84 -0.6,0.34 -0.47,1.15 0.05,0.3 0.02,0.56 -0.05,0.84 -0.23,0.83 -0.97,1.48 -2.01,1.47zm-1.49 1.18c0.22,-0.33 0.38,-1.05 0.41,-1.5 -0.22,-0.21 -0.3,-0.22 -0.47,-0.46 -0.15,-0.2 -0.21,-0.45 -0.38,-0.64l-1.4 -0.01c0.11,1.16 1.02,2.31 1.84,2.61zm25.07 -35.11c-1.42,0.53 -0.22,2.23 0.79,1.83 0.37,-0.14 0.73,-0.75 0.56,-1.29 -0.13,-0.41 -0.74,-0.77 -1.35,-0.54zm-0.47 -1.16c-3.21,1.22 -0.49,5.06 1.78,4.16 0.84,-0.33 1.66,-1.7 1.27,-2.92 -0.3,-0.94 -1.68,-1.75 -3.05,-1.24zm5.92 8.03c-0.1,-0.32 -0.85,-1.53 -1.06,-1.74 -0.28,-0.27 -1.75,-0.84 -2.18,-0.43 -0.49,0.47 0.76,1.48 0.98,1.64 0.61,0.43 1.35,0.55 2.26,0.53zm-9.59 12.35c0.69,-0.05 4.66,-2.4 9.97,-0.17 9.43,3.95 10.32,17.25 0.94,22.23 -1.34,0.71 -2.94,1.2 -4.7,1.35 -0.5,0.05 -0.92,0.01 -1.39,0.1 -0.31,0.06 -0.87,-0.13 -1.3,-0.18 -0.86,-0.12 -1.66,-0.33 -2.43,-0.6 -7.67,-2.69 -10.89,-12.45 -5.34,-19.35 0.61,-0.76 1.5,-1.6 2.33,-2.18 0.15,-0.11 0.27,-0.18 0.44,-0.3 0.32,-0.23 0.23,-0.15 0.15,-0.55 -0.96,0.32 -2.67,2.11 -3.34,2.91 -0.85,1.01 -1.68,2.54 -2.18,4.09 -2.06,6.5 1.5,13.64 8.03,15.88 6.59,2.25 13.74,-1.23 16.08,-7.59 3.15,-8.55 -3.41,-17.64 -12.55,-17.2 -0.95,0.04 -1.82,0.19 -2.69,0.42l-1.76 0.6c-0.33,0.15 -0.33,0.15 -0.26,0.54zm6.49 12.4l7.45 6.79c0.74,-0.69 1.58,-1.95 2.09,-3.08 0.44,-0.97 1.11,-3 1.03,-4.22l-10.28 -0.04c-0.18,0.14 -0.24,0.36 -0.29,0.55zm-10.03 -9.16c0.39,0.51 4.44,3.99 5.19,4.76l1.7 1.56 -4.41 -8.38c-0.58,0.15 -2.27,1.7 -2.48,2.06zm-0.4 15.4l6.1 -5.25c0.25,-0.23 0.65,-0.6 0.91,-0.78 -0.07,-0.18 -0.27,-0.6 -0.36,-0.78l-9.32 -0.03c0.11,1.46 0.36,2.66 0.88,3.88 0.35,0.84 1.24,2.51 1.79,2.96zm4.05 -18.13c0.1,0.35 1.78,3.43 2.09,3.99 0.37,0.68 1.81,3.55 2.12,3.91l0 -9.05c-1.1,-0.04 -3.53,0.63 -4.21,1.15zm-3.65 18.61c1.08,1.09 1.75,1.76 3.26,2.54 0.98,0.51 3.26,1.41 4.6,1.31l0 -9.61c-0.35,-0.1 -0.61,-0.28 -0.87,-0.35 -0.54,0.5 -1.18,0.96 -1.73,1.5 -0.24,0.22 -0.59,0.51 -0.88,0.75l-2.64 2.3c-0.43,0.37 -1.45,1.16 -1.74,1.56zm8.42 -5.69l0 9.58c1.5,0.22 3.81,-0.41 5.01,-0.93 1.05,-0.45 3.06,-1.65 3.61,-2.45l-7.39 -6.77c-1.02,0.64 -0.89,0.36 -1.23,0.57zm1.62 -3.09l0.28 0.94c3.17,0.09 7.15,0.06 10.32,0.06 0.01,-2.47 -0.89,-5.69 -2.58,-7.56l-0.21 -0.19c-0.6,0.37 -6.52,5.77 -7.81,6.75zm-1.63 -10.71c0,2.98 -0.07,6.78 0,9.67 0.24,0.1 0.46,0.1 0.72,0.22 0.27,0.13 0.37,0.27 0.6,0.36l3.87 -3.35c0.63,-0.56 3.76,-3.22 3.88,-3.45 -1.93,-2.02 -4.99,-3.89 -9.07,-3.75l0 0.3zm-11.49 11.61l9.26 0.05c0.13,-0.28 -0.01,-0.21 0.44,-1.18l-1.7 -1.61c-0.61,-0.52 -1.16,-1.1 -1.78,-1.62 -0.39,-0.33 -3.25,-3.05 -3.54,-3.19 -1.28,1.32 -2.91,4.92 -2.68,7.55z"/>
  <path class="fil0" d="M57.8 3.36c0.46,0.07 0.72,-0.13 0.95,-0.35 0.26,-0.25 0.47,-0.44 0.67,-0.74 0.4,-0.6 0.58,-1.37 0.5,-2.27 -0.38,0.15 -1.52,0.83 -1.8,1.12 -0.4,0.43 -0.74,1.71 -0.32,2.24z"/>
 </g>
</svg>
