<?xml version="1.0" encoding="UTF-8"?>
<!DOCTYPE svg PUBLIC "-//W3C//DTD SVG 1.1//EN" "http://www.w3.org/Graphics/SVG/1.1/DTD/svg11.dtd">
<!-- Creator: CorelDRAW 2018 (64-Bit) -->
<svg xmlns="http://www.w3.org/2000/svg" xml:space="preserve" width="43px" height="32px" version="1.1" style="shape-rendering:geometricPrecision; text-rendering:geometricPrecision; image-rendering:optimizeQuality; fill-rule:evenodd; clip-rule:evenodd"
viewBox="0 0 3.19 2.34"
 xmlns:xlink="http://www.w3.org/1999/xlink">
 <defs>
  <style type="text/css">
   <![CDATA[
    .fil0 {fill:#464646;fill-rule:nonzero}
   ]]>
  </style>
 </defs>
 <g id="Layer_x0020_1">
  <metadata id="CorelCorpID_0Corel-Layer"/>
  <path class="fil0" d="M0.28 2.21l2.62 0c0.03,0 0.05,0 0.07,-0.01l-0.95 -0.95 -0.23 0.23c-0.11,0.11 -0.29,0.11 -0.4,0l-0.22 -0.23 -0.95 0.95c0.02,0.01 0.04,0.01 0.06,0.01zm1.83 -1.05l0.94 0.94c0.01,-0.01 0.01,-0.03 0.01,-0.05l0 -1.77c0,-0.02 0,-0.04 -0.01,-0.06l-0.94 0.94zm0.85 -1.02c-0.02,-0.01 -0.04,-0.01 -0.06,-0.01l-2.62 0c-0.01,0 -0.03,0 -0.05,0.01l1.25 1.25c0.06,0.06 0.16,0.06 0.22,0l1.26 -1.25zm-2.82 0.09c-0.01,0.01 -0.01,0.03 -0.01,0.05l0 1.77c0,0.02 0,0.04 0.01,0.05l0.94 -0.94 -0.94 -0.93zm2.76 2.11l-2.62 0c-0.15,0 -0.28,-0.13 -0.28,-0.29l0 -1.77c0,-0.15 0.13,-0.28 0.28,-0.28l2.62 0c0.16,0 0.29,0.13 0.29,0.28l0 1.77c0,0.16 -0.13,0.29 -0.29,0.29z"/>
 </g>
</svg>
