<?xml version="1.0" encoding="UTF-8"?>
<!DOCTYPE svg PUBLIC "-//W3C//DTD SVG 1.1//EN" "http://www.w3.org/Graphics/SVG/1.1/DTD/svg11.dtd">
<!-- Creator: CorelDRAW 2018 (64-Bit) -->
<svg xmlns="http://www.w3.org/2000/svg" xml:space="preserve" width="1663px" height="673px" version="1.1" style="shape-rendering:geometricPrecision; text-rendering:geometricPrecision; image-rendering:optimizeQuality; fill-rule:evenodd; clip-rule:evenodd"
viewBox="0 0 166300 67300"
 xmlns:xlink="http://www.w3.org/1999/xlink">
 <defs>
  <style type="text/css">
   <![CDATA[
    .fil3 {fill:#B2D9B0}
    .fil0 {fill:#B2D9B0}
    .fil1 {fill:#F5F4B3}
    .fil2 {fill:url(#id0)}
   ]]>
  </style>
  <linearGradient id="id0" gradientUnits="userSpaceOnUse" x1="82789" y1="38094" x2="82789" y2="66407">
   <stop offset="0" style="stop-opacity:1; stop-color:#B2D9B0"/>
   <stop offset="1" style="stop-opacity:1; stop-color:#FEFEFE"/>
  </linearGradient>
 </defs>
 <g id="Layer_x0020_1">
  <metadata id="CorelCorpID_0Corel-Layer"/>
  <g id="_2394784514368">
   <path class="fil0" d="M87440 28665c591,0 470,-70 681,-289 731,1194 3100,2726 7182,1486 2069,1541 6009,679 7100,-1074 60,62 446,330 495,351 2109,938 5099,-3831 3426,-6872 1276,-3712 -701,-5902 -1858,-7347 1422,-658 -638,-3874 -2104,-4954 -2153,-1588 -4663,-2627 -6811,-1629 -5304,-1518 -8300,3326 -7904,3818 79,98 139,241 474,289 -3837,849 -4064,3930 -3756,4375 218,313 435,412 702,495 -1609,1609 -3226,5029 -1156,7099 129,128 578,413 743,413 -205,2061 564,3839 2786,3839z"/>
   <path class="fil1" d="M95919 26156c57,1010 43,2662 78,3835 3,101 47,5930 170,6227 206,498 511,659 1013,850 -1797,-49 -2151,0 -3724,0 1088,-301 1108,-871 1120,-1227 63,-1955 527,-7004 249,-8194 -3256,815 -5485,-717 -8022,-2414 526,240 4735,3022 8055,1673 0,-481 -14,-2891 36,-4704 -394,160 -1629,416 -3282,111 -135,-25 -1274,937 -4051,1264 2950,-587 3303,-1434 3129,-1485 -1451,-426 -3128,-1298 -4807,-2966 4999,4139 9012,2672 9028,2174 24,-786 -90,-2758 -109,-4867 -1,-165 -2231,1503 -5773,74 4284,965 5771,-933 5772,-1114 4,-409 12,-816 27,-1214 -175,-1379 -153,-2287 -898,-4433 1297,3029 1207,3669 1285,3776 218,296 3746,482 4518,-2149 -140,1422 -1742,2944 -4103,2703 -616,1939 109,4407 120,4548 101,1334 5283,795 9054,-894 -962,494 -2470,1208 -3791,1649 -149,49 542,1286 3882,2149 -3411,-598 -4323,-2040 -4481,-1999 -1276,333 -3170,515 -4572,299 0,1559 -77,3231 -16,4766 318,1325 1486,1280 1512,1397 27,-6 2613,530 3696,290 1724,-381 1973,-206 3814,-1053 -1619,994 -3125,1143 -4869,1529 -303,66 -2989,47 -4060,-601z"/>
  </g>
  <g id="_2394784511488">
   <path class="fil2" d="M0 55188l166300 0c0,-5577 0,-18322 0,-23899 -59784,6300 -107116,-5101 -166300,0l0 23899z"/>
   <path class="fil3" d="M107686 35231c-78,-275 -299,-1102 -356,-1951 -246,-3657 -23,-4943 348,-5100 441,-186 310,3740 310,4188 0,384 200,2142 200,703 36,0 405,-2862 1133,-2641 739,225 -370,2456 -530,2842 -1,3 -134,543 -201,703 -116,281 -502,867 -502,1105l-402 151z"/>
   <path class="fil3" d="M146003 34164c0,-1993 -1932,-2630 -1744,-6169 56,-1064 1170,-76 1050,600 -544,3056 868,3474 1294,4500 861,-2628 -904,-6863 900,-6863 1153,0 0,4223 0,5082 0,614 108,2026 898,472 749,-1474 1326,-3738 2139,-3547 880,205 -524,2893 -1800,4144 -117,115 -1987,889 -1987,1481 -4,0 -750,353 -750,300z"/>
   <path class="fil3" d="M27312 32218c0,-1994 1932,-2631 1744,-6170 -56,-1063 -1170,-75 -1050,600 544,3057 -869,3474 -1294,4501 -861,-2629 904,-6863 -900,-6863 -1153,0 0,4222 0,5081 0,615 -108,2027 -898,473 -750,-1474 -1327,-3738 -2140,-3548 -879,206 525,2893 1800,4144 118,115 1988,890 1988,1482 3,0 750,353 750,300z"/>
  </g>
 </g>
</svg>
