<?xml version="1.0" encoding="UTF-8"?>
<!DOCTYPE svg PUBLIC "-//W3C//DTD SVG 1.1//EN" "http://www.w3.org/Graphics/SVG/1.1/DTD/svg11.dtd">
<!-- Creator: CorelDRAW 2018 (64-Bit) -->
<svg xmlns="http://www.w3.org/2000/svg" xml:space="preserve" width="1807px" height="454px" version="1.1" style="shape-rendering:geometricPrecision; text-rendering:geometricPrecision; image-rendering:optimizeQuality; fill-rule:evenodd; clip-rule:evenodd"
viewBox="0 0 180700 45404"
 xmlns:xlink="http://www.w3.org/1999/xlink">
 <defs>
  <style type="text/css">
   <![CDATA[
    .fil5 {fill:#B2D9B0}
    .fil0 {fill:#CBF2E3}
    .fil3 {fill:#F5F4B3}
    .fil1 {fill:#F5F4B3}
    .fil4 {fill:white}
    .fil2 {fill:url(#id0)}
   ]]>
  </style>
  <linearGradient id="id0" gradientUnits="userSpaceOnUse" x1="89960" y1="15164" x2="89960" y2="37249">
   <stop offset="0" style="stop-opacity:1; stop-color:#F5F4B3"/>
   <stop offset="1" style="stop-opacity:1; stop-color:#FEFEFE"/>
  </linearGradient>
 </defs>
 <g id="Layer_x0020_1">
  <metadata id="CorelCorpID_0Corel-Layer"/>
  <path class="fil0" d="M79845 16779c763,-4054 3289,-3704 3958,-2397 1125,-6000 4741,-3973 5184,-1533 474,-1087 1839,-1444 2564,-947 624,-2341 4925,-2614 5128,4877 -2620,0 -13704,0 -16834,0z"/>
  <path class="fil1" d="M90367 18589c822,-4365 3541,-3988 4261,-2580 1212,-6460 5104,-4278 5581,-1651 510,-1170 1981,-1555 2761,-1020 671,-2521 5302,-2814 5521,5251 -2820,0 -14755,0 -18124,0z"/>
  <g id="_2394542275136">
   <path class="fil2" d="M180700 45404l-180700 0c0,-5579 0,-25110 0,-30689 59792,6302 121508,-5101 180700,0l0 30689z"/>
   <path class="fil3" d="M129910 13887c35,-120 131,-481 156,-853 107,-1598 10,-2160 -152,-2229 -193,-81 -136,1635 -136,1831 0,167 -87,936 -87,307 -16,0 -177,-1251 -495,-1154 -323,98 161,1073 231,1242 1,1 59,237 88,307 51,123 220,379 220,483l175 66z"/>
   <path class="fil3" d="M24680 16700c0,-780 756,-1029 682,-2414 -22,-416 -458,-29 -411,235 213,1196 -339,1359 -506,1761 -337,-1029 354,-2685 -352,-2685 -451,0 0,1652 0,1988 0,240 -42,793 -351,185 -293,-577 -519,-1463 -837,-1388 -344,80 205,1132 704,1621 46,45 169,335 169,566 1,0 902,152 902,131z"/>
   <path class="fil3" d="M91201 15606c0,-549 -736,-980 -679,-2050 17,-321 354,-23 317,181 -164,924 263,1051 392,1361 260,-795 -274,-2075 272,-2075 348,0 0,1277 0,1536 0,186 32,613 271,143 227,-445 401,-1130 647,-1072 266,62 -161,619 -544,1252 -210,347 -232,552 -232,731 -1,0 -444,9 -444,-7z"/>
  </g>
  <g id="_2394542278976">
   <path class="fil0" d="M91081 11787c1173,-317 2114,-2373 1804,-4203 158,-2558 -522,-4088 -1535,-4615 -590,-1662 -1778,-2736 -3188,-2083 -1848,-2201 -3507,240 -3908,1487 -1407,234 -2644,2527 -1943,3920 -676,465 -877,3106 252,4002 262,1516 1342,2525 2694,2787 46,37 4092,1286 5824,-1295z"/>
   <path class="fil4" d="M87959 10947c36,-1220 2467,-2800 3749,-2452 -1198,-225 -3222,446 -3753,1590 6,-493 -118,-3097 8,-3629 207,-877 2982,-1184 4355,-1534 -1956,358 -3827,280 -4407,1170 -96,-890 -124,-1375 -112,-2312 5,-472 1362,-1421 2178,-1692 -530,105 -1502,512 -2198,1249 64,-897 -219,-1660 -456,-2359 115,474 310,971 272,1805 -452,-328 -1339,-816 -1992,-934 843,250 1577,766 1696,985 273,502 136,2055 59,4027 -901,-1102 -1806,-1458 -4664,-2352 2697,955 4404,2152 4609,2879 127,450 -63,2557 -41,3367 -938,-1252 -2821,-2030 -4155,-2076 2130,358 4069,1789 4102,3085 48,1892 59,2395 -139,3278 -97,436 -546,688 -862,1042 1359,-421 1918,-351 3084,-125 -390,-134 -925,-241 -1060,-831 -317,-1387 -312,-2878 -273,-4181z"/>
  </g>
  <g id="_2394542277984">
   <path class="fil5" d="M7553 16508c-1558,-420 -2808,-3151 -2397,-5583 -209,-3396 693,-5429 2039,-6129 784,-2207 2362,-3634 4234,-2767 2456,-2922 4659,319 5191,1975 1868,312 3512,3357 2581,5207 898,618 1165,4125 -335,5316 -348,2014 -1782,3353 -3579,3701 -60,50 -5434,1708 -7734,-1720z"/>
   <path class="fil1" d="M11700 15393c-48,-1620 -3277,-3719 -4981,-3257 1592,-298 4280,592 4986,2111 -9,-654 156,-4113 -11,-4819 -275,-1165 -3961,-1573 -5784,-2038 2598,475 5083,373 5853,1554 128,-1181 164,-1826 149,-3071 -7,-627 -1809,-1887 -2893,-2247 704,139 1994,681 2919,1659 -84,-1191 292,-2205 606,-3134 -153,630 -411,1290 -361,2398 600,-435 1778,-1084 2645,-1241 -1120,333 -2095,1018 -2253,1309 -362,667 -180,2729 -77,5348 1196,-1463 2398,-1937 6193,-3123 -3581,1268 -5848,2858 -6121,3824 -169,597 84,3395 55,4472 1246,-1663 3747,-2697 5519,-2757 -2829,475 -5405,2376 -5449,4097 -64,2512 -78,3181 184,4353 130,580 726,915 1146,1384 -1805,-558 -2547,-465 -4097,-165 519,-178 1229,-320 1408,-1103 422,-1844 415,-3824 364,-5554z"/>
  </g>
 </g>
</svg>
